<mxfile host="app.diagrams.net" agent="Mozilla/5.0 (Windows NT 10.0; Win64; x64) AppleWebKit/537.36 (KHTML, like Gecko) Chrome/132.0.0.0 YaBrowser/25.2.0.0 Safari/537.36" version="26.1.3">
  <diagram name="Страница — 1" id="-Z88o1OVe94oUlmGKbAs">
    <mxGraphModel dx="4097" dy="2191" grid="0" gridSize="10" guides="1" tooltips="1" connect="1" arrows="1" fold="1" page="1" pageScale="1" pageWidth="2339" pageHeight="3300" math="0" shadow="0">
      <root>
        <mxCell id="0" />
        <mxCell id="1" parent="0" />
        <mxCell id="kj0e2nadQdQcvHDCw8Em-1" value="Отдел планового развития" style="shape=umlActor;verticalLabelPosition=bottom;verticalAlign=top;html=1;strokeColor=default;labelPosition=center;align=center;" vertex="1" parent="1">
          <mxGeometry x="603" y="215.5" width="30" height="60" as="geometry" />
        </mxCell>
        <mxCell id="kj0e2nadQdQcvHDCw8Em-2" style="edgeStyle=orthogonalEdgeStyle;rounded=0;orthogonalLoop=1;jettySize=auto;html=1;exitX=1;exitY=0.3333333333333333;exitDx=0;exitDy=0;exitPerimeter=0;endArrow=none;startFill=0;" edge="1" parent="1" source="kj0e2nadQdQcvHDCw8Em-3" target="kj0e2nadQdQcvHDCw8Em-77">
          <mxGeometry relative="1" as="geometry" />
        </mxCell>
        <mxCell id="kj0e2nadQdQcvHDCw8Em-3" value="Плановый отдел&lt;div&gt;&lt;br&gt;&lt;/div&gt;" style="shape=umlActor;verticalLabelPosition=bottom;verticalAlign=top;html=1;" vertex="1" parent="1">
          <mxGeometry x="810" y="404.5" width="30" height="60" as="geometry" />
        </mxCell>
        <mxCell id="kj0e2nadQdQcvHDCw8Em-4" value="Производственный отдел" style="shape=umlActor;verticalLabelPosition=bottom;verticalAlign=top;html=1;" vertex="1" parent="1">
          <mxGeometry x="2164" y="668.5" width="30" height="60" as="geometry" />
        </mxCell>
        <mxCell id="kj0e2nadQdQcvHDCw8Em-5" style="edgeStyle=orthogonalEdgeStyle;rounded=0;orthogonalLoop=1;jettySize=auto;html=1;exitX=1;exitY=0.5;exitDx=0;exitDy=0;entryX=0;entryY=0.5;entryDx=0;entryDy=0;endArrow=classic;startFill=0;endFill=1;dashed=1;" edge="1" parent="1" source="kj0e2nadQdQcvHDCw8Em-6" target="kj0e2nadQdQcvHDCw8Em-9">
          <mxGeometry relative="1" as="geometry" />
        </mxCell>
        <mxCell id="kj0e2nadQdQcvHDCw8Em-6" value="Анализировать рынок" style="ellipse;whiteSpace=wrap;html=1;" vertex="1" parent="1">
          <mxGeometry x="731" y="201.5" width="120" height="80" as="geometry" />
        </mxCell>
        <mxCell id="kj0e2nadQdQcvHDCw8Em-7" style="edgeStyle=orthogonalEdgeStyle;rounded=0;orthogonalLoop=1;jettySize=auto;html=1;exitX=1;exitY=0.5;exitDx=0;exitDy=0;entryX=0;entryY=0.5;entryDx=0;entryDy=0;endArrow=classic;startFill=0;dashed=1;endFill=1;" edge="1" parent="1" source="kj0e2nadQdQcvHDCw8Em-9" target="kj0e2nadQdQcvHDCw8Em-11">
          <mxGeometry relative="1" as="geometry" />
        </mxCell>
        <mxCell id="kj0e2nadQdQcvHDCw8Em-8" style="edgeStyle=orthogonalEdgeStyle;rounded=0;orthogonalLoop=1;jettySize=auto;html=1;exitX=0.5;exitY=1;exitDx=0;exitDy=0;entryX=0.5;entryY=0;entryDx=0;entryDy=0;dashed=1;" edge="1" parent="1" source="kj0e2nadQdQcvHDCw8Em-9" target="kj0e2nadQdQcvHDCw8Em-77">
          <mxGeometry relative="1" as="geometry" />
        </mxCell>
        <mxCell id="kj0e2nadQdQcvHDCw8Em-9" value="Подготавливать предложения" style="ellipse;whiteSpace=wrap;html=1;" vertex="1" parent="1">
          <mxGeometry x="966" y="201.5" width="120" height="80" as="geometry" />
        </mxCell>
        <mxCell id="kj0e2nadQdQcvHDCw8Em-10" style="edgeStyle=orthogonalEdgeStyle;rounded=0;orthogonalLoop=1;jettySize=auto;html=1;exitX=0.5;exitY=1;exitDx=0;exitDy=0;entryX=0.5;entryY=0;entryDx=0;entryDy=0;dashed=1;" edge="1" parent="1" source="kj0e2nadQdQcvHDCw8Em-11" target="kj0e2nadQdQcvHDCw8Em-13">
          <mxGeometry relative="1" as="geometry" />
        </mxCell>
        <mxCell id="kj0e2nadQdQcvHDCw8Em-11" value="Предоставить данные о спросе и рынка" style="ellipse;whiteSpace=wrap;html=1;" vertex="1" parent="1">
          <mxGeometry x="1726" y="201.5" width="120" height="80" as="geometry" />
        </mxCell>
        <mxCell id="kj0e2nadQdQcvHDCw8Em-12" style="edgeStyle=orthogonalEdgeStyle;rounded=0;orthogonalLoop=1;jettySize=auto;html=1;exitX=1;exitY=0.5;exitDx=0;exitDy=0;entryX=0;entryY=0.5;entryDx=0;entryDy=0;dashed=1;" edge="1" parent="1" source="kj0e2nadQdQcvHDCw8Em-75" target="kj0e2nadQdQcvHDCw8Em-71">
          <mxGeometry relative="1" as="geometry" />
        </mxCell>
        <mxCell id="kj0e2nadQdQcvHDCw8Em-13" value="Подготовить тарифы" style="ellipse;whiteSpace=wrap;html=1;" vertex="1" parent="1">
          <mxGeometry x="1726" y="384.5" width="120" height="80" as="geometry" />
        </mxCell>
        <mxCell id="kj0e2nadQdQcvHDCw8Em-14" style="edgeStyle=orthogonalEdgeStyle;rounded=0;orthogonalLoop=1;jettySize=auto;html=1;exitX=0.5;exitY=0;exitDx=0;exitDy=0;entryX=0.5;entryY=1;entryDx=0;entryDy=0;dashed=1;" edge="1" parent="1" source="kj0e2nadQdQcvHDCw8Em-16" target="kj0e2nadQdQcvHDCw8Em-13">
          <mxGeometry relative="1" as="geometry" />
        </mxCell>
        <mxCell id="kj0e2nadQdQcvHDCw8Em-15" style="edgeStyle=orthogonalEdgeStyle;rounded=0;orthogonalLoop=1;jettySize=auto;html=1;exitX=1;exitY=0.5;exitDx=0;exitDy=0;entryX=0;entryY=0.5;entryDx=0;entryDy=0;dashed=1;" edge="1" parent="1" source="kj0e2nadQdQcvHDCw8Em-16" target="kj0e2nadQdQcvHDCw8Em-27">
          <mxGeometry relative="1" as="geometry" />
        </mxCell>
        <mxCell id="kj0e2nadQdQcvHDCw8Em-16" value="Утвердить тарифы" style="ellipse;whiteSpace=wrap;html=1;" vertex="1" parent="1">
          <mxGeometry x="1726" y="537.5" width="120" height="80" as="geometry" />
        </mxCell>
        <mxCell id="kj0e2nadQdQcvHDCw8Em-17" value="Заинтересовать клиента" style="ellipse;whiteSpace=wrap;html=1;" vertex="1" parent="1">
          <mxGeometry x="2191" y="201.5" width="120" height="80" as="geometry" />
        </mxCell>
        <mxCell id="kj0e2nadQdQcvHDCw8Em-18" value="Зарегистрировать заказ" style="ellipse;whiteSpace=wrap;html=1;" vertex="1" parent="1">
          <mxGeometry x="2425" y="275.5" width="120" height="80" as="geometry" />
        </mxCell>
        <mxCell id="kj0e2nadQdQcvHDCw8Em-19" value="Создать договор" style="ellipse;whiteSpace=wrap;html=1;" vertex="1" parent="1">
          <mxGeometry x="2259" y="339.5" width="120" height="80" as="geometry" />
        </mxCell>
        <mxCell id="kj0e2nadQdQcvHDCw8Em-20" value="Получить подтверждение договора от клиента" style="ellipse;whiteSpace=wrap;html=1;" vertex="1" parent="1">
          <mxGeometry x="2090" y="408.5" width="120" height="80" as="geometry" />
        </mxCell>
        <mxCell id="kj0e2nadQdQcvHDCw8Em-21" style="edgeStyle=orthogonalEdgeStyle;rounded=0;orthogonalLoop=1;jettySize=auto;html=1;exitX=1;exitY=0.3333333333333333;exitDx=0;exitDy=0;exitPerimeter=0;entryX=0;entryY=0.5;entryDx=0;entryDy=0;endArrow=none;startFill=0;" edge="1" parent="1" source="kj0e2nadQdQcvHDCw8Em-22" target="kj0e2nadQdQcvHDCw8Em-23">
          <mxGeometry relative="1" as="geometry" />
        </mxCell>
        <mxCell id="kj0e2nadQdQcvHDCw8Em-22" value="Отдел обслуживания" style="shape=umlActor;verticalLabelPosition=bottom;verticalAlign=top;html=1;" vertex="1" parent="1">
          <mxGeometry x="2625" y="295.5" width="30" height="60" as="geometry" />
        </mxCell>
        <mxCell id="kj0e2nadQdQcvHDCw8Em-23" value="Уведомить клиента о завершении услуг" style="ellipse;whiteSpace=wrap;html=1;" vertex="1" parent="1">
          <mxGeometry x="2744" y="275.5" width="120" height="80" as="geometry" />
        </mxCell>
        <mxCell id="kj0e2nadQdQcvHDCw8Em-24" style="edgeStyle=orthogonalEdgeStyle;rounded=0;orthogonalLoop=1;jettySize=auto;html=1;exitX=1;exitY=0.3333333333333333;exitDx=0;exitDy=0;exitPerimeter=0;entryX=0;entryY=0.5;entryDx=0;entryDy=0;endArrow=none;startFill=0;" edge="1" parent="1" source="kj0e2nadQdQcvHDCw8Em-25" target="kj0e2nadQdQcvHDCw8Em-65">
          <mxGeometry relative="1" as="geometry" />
        </mxCell>
        <mxCell id="kj0e2nadQdQcvHDCw8Em-25" value="Отдел закупок" style="shape=umlActor;verticalLabelPosition=bottom;verticalAlign=top;html=1;" vertex="1" parent="1">
          <mxGeometry x="2246" y="796.5" width="30" height="60" as="geometry" />
        </mxCell>
        <mxCell id="kj0e2nadQdQcvHDCw8Em-26" value="Технический отдел" style="shape=umlActor;verticalLabelPosition=bottom;verticalAlign=top;html=1;" vertex="1" parent="1">
          <mxGeometry x="3005" y="564.5" width="30" height="60" as="geometry" />
        </mxCell>
        <mxCell id="kj0e2nadQdQcvHDCw8Em-27" value="Разработать план выполнения" style="ellipse;whiteSpace=wrap;html=1;" vertex="1" parent="1">
          <mxGeometry x="2280" y="537.5" width="120" height="80" as="geometry" />
        </mxCell>
        <mxCell id="kj0e2nadQdQcvHDCw8Em-28" value="Начать выполнения работ без доп ресурсов" style="ellipse;whiteSpace=wrap;html=1;" vertex="1" parent="1">
          <mxGeometry x="2554" y="471.5" width="120" height="80" as="geometry" />
        </mxCell>
        <mxCell id="kj0e2nadQdQcvHDCw8Em-29" value="Запросить дополнительные ресурсы&lt;span style=&quot;color: rgba(0, 0, 0, 0); font-family: monospace; font-size: 0px; text-align: start; text-wrap-mode: nowrap;&quot;&gt;%3CmxGraphModel%3E%3Croot%3E%3CmxCell%20id%3D%220%22%2F%3E%3CmxCell%20id%3D%221%22%20parent%3D%220%22%2F%3E%3CmxCell%20id%3D%222%22%20value%3D%22%D0%9D%D0%B0%D1%87%D0%B0%D1%82%D1%8C%20%D0%B2%D1%8B%D0%BF%D0%BE%D0%BB%D0%BD%D0%B5%D0%BD%D0%B8%D1%8F%20%D1%80%D0%B0%D0%B1%D0%BE%D1%82%20%D0%B1%D0%B5%D0%B7%20%D0%B4%D0%BE%D0%BF%20%D1%80%D0%B5%D1%81%D1%83%D1%80%D1%81%D0%BE%D0%B2%22%20style%3D%22ellipse%3BwhiteSpace%3Dwrap%3Bhtml%3D1%3B%22%20vertex%3D%221%22%20parent%3D%221%22%3E%3CmxGeometry%20x%3D%221516%22%20y%3D%22406%22%20width%3D%22120%22%20height%3D%2280%22%20as%3D%22geometry%22%2F%3E%3C%2FmxCell%3E%3C%2Froot%3E%3C%2FmxGraphModel%3E&lt;/span&gt;&lt;span style=&quot;color: rgba(0, 0, 0, 0); font-family: monospace; font-size: 0px; text-align: start; text-wrap-mode: nowrap;&quot;&gt;%3CmxGraphModel%3E%3Croot%3E%3CmxCell%20id%3D%220%22%2F%3E%3CmxCell%20id%3D%221%22%20parent%3D%220%22%2F%3E%3CmxCell%20id%3D%222%22%20value%3D%22%D0%9D%D0%B0%D1%87%D0%B0%D1%82%D1%8C%20%D0%B2%D1%8B%D0%BF%D0%BE%D0%BB%D0%BD%D0%B5%D0%BD%D0%B8%D1%8F%20%D1%80%D0%B0%D0%B1%D0%BE%D1%82%20%D0%B1%D0%B5%D0%B7%20%D0%B4%D0%BE%D0%BF%20%D1%80%D0%B5%D1%81%D1%83%D1%80%D1%81%D0%BE%D0%B2%22%20style%3D%22ellipse%3BwhiteSpace%3Dwrap%3Bhtml%3D1%3B%22%20vertex%3D%221%22%20parent%3D%221%22%3E%3CmxGeometry%20x%3D%221516%22%20y%3D%22406%22%20width%3D%22120%22%20height%3D%2280%22%20as%3D%22geometry%22%2F%3E%3C%2FmxCell%3E%3C%2Froot%3E%3C%2FmxGraphModel%3E&lt;/span&gt;" style="ellipse;whiteSpace=wrap;html=1;" vertex="1" parent="1">
          <mxGeometry x="2549" y="626.5" width="120" height="80" as="geometry" />
        </mxCell>
        <mxCell id="kj0e2nadQdQcvHDCw8Em-30" style="edgeStyle=orthogonalEdgeStyle;rounded=0;orthogonalLoop=1;jettySize=auto;html=1;exitX=0.5;exitY=0;exitDx=0;exitDy=0;entryX=0.5;entryY=1;entryDx=0;entryDy=0;" edge="1" parent="1" source="kj0e2nadQdQcvHDCw8Em-31" target="kj0e2nadQdQcvHDCw8Em-29">
          <mxGeometry relative="1" as="geometry" />
        </mxCell>
        <mxCell id="kj0e2nadQdQcvHDCw8Em-31" value="Передать в использование дополнительные ресурсы" style="ellipse;whiteSpace=wrap;html=1;" vertex="1" parent="1">
          <mxGeometry x="2549" y="776.5" width="120" height="80" as="geometry" />
        </mxCell>
        <mxCell id="kj0e2nadQdQcvHDCw8Em-32" style="edgeStyle=orthogonalEdgeStyle;rounded=0;orthogonalLoop=1;jettySize=auto;html=1;entryX=0.5;entryY=1;entryDx=0;entryDy=0;dashed=1;" edge="1" parent="1" source="kj0e2nadQdQcvHDCw8Em-33" target="kj0e2nadQdQcvHDCw8Em-23">
          <mxGeometry relative="1" as="geometry" />
        </mxCell>
        <mxCell id="kj0e2nadQdQcvHDCw8Em-33" value="Выполнить технические работы по подключению" style="ellipse;whiteSpace=wrap;html=1;" vertex="1" parent="1">
          <mxGeometry x="2744" y="551.5" width="120" height="80" as="geometry" />
        </mxCell>
        <mxCell id="kj0e2nadQdQcvHDCw8Em-34" style="edgeStyle=orthogonalEdgeStyle;rounded=0;orthogonalLoop=1;jettySize=auto;html=1;exitX=1;exitY=0.3333333333333333;exitDx=0;exitDy=0;exitPerimeter=0;entryX=0;entryY=0.425;entryDx=0;entryDy=0;entryPerimeter=0;endArrow=none;startFill=0;" edge="1" parent="1" source="kj0e2nadQdQcvHDCw8Em-1" target="kj0e2nadQdQcvHDCw8Em-6">
          <mxGeometry relative="1" as="geometry" />
        </mxCell>
        <mxCell id="kj0e2nadQdQcvHDCw8Em-35" value="&amp;lt;&amp;lt;include&amp;gt;&amp;gt;" style="text;html=1;align=center;verticalAlign=middle;whiteSpace=wrap;rounded=0;" vertex="1" parent="1">
          <mxGeometry x="884" y="208.5" width="60" height="30" as="geometry" />
        </mxCell>
        <mxCell id="kj0e2nadQdQcvHDCw8Em-36" value="&amp;lt;&amp;lt;include&amp;gt;&amp;gt;" style="text;html=1;align=center;verticalAlign=middle;whiteSpace=wrap;rounded=0;" vertex="1" parent="1">
          <mxGeometry x="1663" y="201.5" width="60" height="30" as="geometry" />
        </mxCell>
        <mxCell id="kj0e2nadQdQcvHDCw8Em-37" value="&amp;lt;&amp;lt;include&amp;gt;&amp;gt;" style="text;html=1;align=center;verticalAlign=middle;whiteSpace=wrap;rounded=0;" vertex="1" parent="1">
          <mxGeometry x="1037" y="317.5" width="60" height="30" as="geometry" />
        </mxCell>
        <mxCell id="kj0e2nadQdQcvHDCw8Em-38" value="&amp;lt;&amp;lt;include&amp;gt;&amp;gt;" style="text;html=1;align=center;verticalAlign=middle;whiteSpace=wrap;rounded=0;" vertex="1" parent="1">
          <mxGeometry x="1660" y="384.5" width="60" height="30" as="geometry" />
        </mxCell>
        <mxCell id="kj0e2nadQdQcvHDCw8Em-39" style="edgeStyle=orthogonalEdgeStyle;rounded=0;orthogonalLoop=1;jettySize=auto;html=1;exitX=1;exitY=0.3333333333333333;exitDx=0;exitDy=0;exitPerimeter=0;entryX=0;entryY=0.5;entryDx=0;entryDy=0;" edge="1" parent="1" source="kj0e2nadQdQcvHDCw8Em-40" target="kj0e2nadQdQcvHDCw8Em-81">
          <mxGeometry relative="1" as="geometry" />
        </mxCell>
        <mxCell id="kj0e2nadQdQcvHDCw8Em-40" value="Коммерческий отдел" style="shape=umlActor;verticalLabelPosition=bottom;verticalAlign=top;html=1;" vertex="1" parent="1">
          <mxGeometry x="1911" y="221.5" width="30" height="60" as="geometry" />
        </mxCell>
        <mxCell id="kj0e2nadQdQcvHDCw8Em-41" style="edgeStyle=orthogonalEdgeStyle;rounded=0;orthogonalLoop=1;jettySize=auto;html=1;exitX=1;exitY=0.5;exitDx=0;exitDy=0;entryX=0;entryY=0.3333333333333333;entryDx=0;entryDy=0;entryPerimeter=0;endArrow=none;startFill=0;" edge="1" parent="1" source="kj0e2nadQdQcvHDCw8Em-11" target="kj0e2nadQdQcvHDCw8Em-40">
          <mxGeometry relative="1" as="geometry" />
        </mxCell>
        <mxCell id="kj0e2nadQdQcvHDCw8Em-42" value="&amp;lt;&amp;lt;include&amp;gt;&amp;gt;" style="text;html=1;align=center;verticalAlign=middle;whiteSpace=wrap;rounded=0;" vertex="1" parent="1">
          <mxGeometry x="1756" y="317.5" width="60" height="30" as="geometry" />
        </mxCell>
        <mxCell id="kj0e2nadQdQcvHDCw8Em-43" value="&amp;lt;&amp;lt;extend&amp;gt;&amp;gt;" style="text;html=1;align=center;verticalAlign=middle;whiteSpace=wrap;rounded=0;" vertex="1" parent="1">
          <mxGeometry x="1754" y="496.5" width="60" height="30" as="geometry" />
        </mxCell>
        <mxCell id="kj0e2nadQdQcvHDCw8Em-44" value="" style="endArrow=classic;html=1;rounded=0;entryX=0.992;entryY=0.588;entryDx=0;entryDy=0;entryPerimeter=0;dashed=1;" edge="1" parent="1" target="kj0e2nadQdQcvHDCw8Em-17">
          <mxGeometry width="50" height="50" relative="1" as="geometry">
            <mxPoint x="2434" y="293.5" as="sourcePoint" />
            <mxPoint x="2484" y="243.5" as="targetPoint" />
          </mxGeometry>
        </mxCell>
        <mxCell id="kj0e2nadQdQcvHDCw8Em-45" value="" style="endArrow=classic;html=1;rounded=0;entryX=0.967;entryY=0.275;entryDx=0;entryDy=0;entryPerimeter=0;dashed=1;" edge="1" parent="1" target="kj0e2nadQdQcvHDCw8Em-19">
          <mxGeometry width="50" height="50" relative="1" as="geometry">
            <mxPoint x="2431" y="334.5" as="sourcePoint" />
            <mxPoint x="2481" y="284.5" as="targetPoint" />
          </mxGeometry>
        </mxCell>
        <mxCell id="kj0e2nadQdQcvHDCw8Em-46" value="" style="endArrow=classic;html=1;rounded=0;entryX=0.958;entryY=0.238;entryDx=0;entryDy=0;entryPerimeter=0;dashed=1;" edge="1" parent="1" target="kj0e2nadQdQcvHDCw8Em-20">
          <mxGeometry width="50" height="50" relative="1" as="geometry">
            <mxPoint x="2268" y="400.5" as="sourcePoint" />
            <mxPoint x="2318" y="350.5" as="targetPoint" />
          </mxGeometry>
        </mxCell>
        <mxCell id="kj0e2nadQdQcvHDCw8Em-47" value="" style="endArrow=classic;html=1;rounded=0;dashed=1;" edge="1" parent="1" target="kj0e2nadQdQcvHDCw8Em-27">
          <mxGeometry width="50" height="50" relative="1" as="geometry">
            <mxPoint x="2202" y="471.5" as="sourcePoint" />
            <mxPoint x="2252" y="421.5" as="targetPoint" />
          </mxGeometry>
        </mxCell>
        <mxCell id="kj0e2nadQdQcvHDCw8Em-48" value="" style="endArrow=none;html=1;rounded=0;entryX=0.083;entryY=0.8;entryDx=0;entryDy=0;entryPerimeter=0;endFill=1;startFill=0;" edge="1" parent="1" target="kj0e2nadQdQcvHDCw8Em-27">
          <mxGeometry width="50" height="50" relative="1" as="geometry">
            <mxPoint x="2194" y="687.5" as="sourcePoint" />
            <mxPoint x="2244" y="637.5" as="targetPoint" />
          </mxGeometry>
        </mxCell>
        <mxCell id="kj0e2nadQdQcvHDCw8Em-49" value="&amp;lt;&amp;lt;extend&amp;gt;&amp;gt;" style="text;html=1;align=center;verticalAlign=middle;whiteSpace=wrap;rounded=0;" vertex="1" parent="1">
          <mxGeometry x="2358" y="236.5" width="60" height="30" as="geometry" />
        </mxCell>
        <mxCell id="kj0e2nadQdQcvHDCw8Em-50" value="&amp;lt;&amp;lt;extend&amp;gt;&amp;gt;" style="text;html=1;align=center;verticalAlign=middle;whiteSpace=wrap;rounded=0;" vertex="1" parent="1">
          <mxGeometry x="2194" y="382.5" width="60" height="30" as="geometry" />
        </mxCell>
        <mxCell id="kj0e2nadQdQcvHDCw8Em-51" value="&amp;lt;&amp;lt;include&amp;gt;&amp;gt;" style="text;html=1;align=center;verticalAlign=middle;whiteSpace=wrap;rounded=0;" vertex="1" parent="1">
          <mxGeometry x="2365" y="312.5" width="60" height="30" as="geometry" />
        </mxCell>
        <mxCell id="kj0e2nadQdQcvHDCw8Em-52" value="&amp;lt;&amp;lt;include&amp;gt;&amp;gt;" style="text;html=1;align=center;verticalAlign=middle;whiteSpace=wrap;rounded=0;" vertex="1" parent="1">
          <mxGeometry x="1881" y="540.5" width="60" height="30" as="geometry" />
        </mxCell>
        <mxCell id="kj0e2nadQdQcvHDCw8Em-53" value="&amp;lt;&amp;lt;include&amp;gt;&amp;gt;" style="text;html=1;align=center;verticalAlign=middle;whiteSpace=wrap;rounded=0;" vertex="1" parent="1">
          <mxGeometry x="2224" y="476.5" width="60" height="30" as="geometry" />
        </mxCell>
        <mxCell id="kj0e2nadQdQcvHDCw8Em-54" style="edgeStyle=orthogonalEdgeStyle;rounded=0;orthogonalLoop=1;jettySize=auto;html=1;exitX=1;exitY=0.5;exitDx=0;exitDy=0;entryX=0;entryY=0.3333333333333333;entryDx=0;entryDy=0;entryPerimeter=0;endArrow=none;startFill=0;" edge="1" parent="1" source="kj0e2nadQdQcvHDCw8Em-18" target="kj0e2nadQdQcvHDCw8Em-22">
          <mxGeometry relative="1" as="geometry" />
        </mxCell>
        <mxCell id="kj0e2nadQdQcvHDCw8Em-55" style="edgeStyle=orthogonalEdgeStyle;rounded=0;orthogonalLoop=1;jettySize=auto;html=1;exitX=0;exitY=0.3333333333333333;exitDx=0;exitDy=0;exitPerimeter=0;entryX=1;entryY=0.413;entryDx=0;entryDy=0;entryPerimeter=0;endArrow=none;startFill=0;" edge="1" parent="1" source="kj0e2nadQdQcvHDCw8Em-26" target="kj0e2nadQdQcvHDCw8Em-33">
          <mxGeometry relative="1" as="geometry" />
        </mxCell>
        <mxCell id="kj0e2nadQdQcvHDCw8Em-56" value="" style="endArrow=block;html=1;rounded=0;entryX=0.967;entryY=0.275;entryDx=0;entryDy=0;entryPerimeter=0;endFill=0;" edge="1" parent="1" target="kj0e2nadQdQcvHDCw8Em-27">
          <mxGeometry width="50" height="50" relative="1" as="geometry">
            <mxPoint x="2555" y="500.5" as="sourcePoint" />
            <mxPoint x="2605" y="450.5" as="targetPoint" />
          </mxGeometry>
        </mxCell>
        <mxCell id="kj0e2nadQdQcvHDCw8Em-57" value="" style="endArrow=block;html=1;rounded=0;entryX=0.983;entryY=0.663;entryDx=0;entryDy=0;entryPerimeter=0;endFill=0;" edge="1" parent="1" target="kj0e2nadQdQcvHDCw8Em-27">
          <mxGeometry width="50" height="50" relative="1" as="geometry">
            <mxPoint x="2549" y="663.5" as="sourcePoint" />
            <mxPoint x="2599" y="613.5" as="targetPoint" />
          </mxGeometry>
        </mxCell>
        <mxCell id="kj0e2nadQdQcvHDCw8Em-58" value="" style="endArrow=classic;html=1;rounded=0;dashed=1;" edge="1" parent="1" target="kj0e2nadQdQcvHDCw8Em-33">
          <mxGeometry width="50" height="50" relative="1" as="geometry">
            <mxPoint x="2673" y="505.5" as="sourcePoint" />
            <mxPoint x="2723" y="455.5" as="targetPoint" />
          </mxGeometry>
        </mxCell>
        <mxCell id="kj0e2nadQdQcvHDCw8Em-59" value="" style="endArrow=classic;html=1;rounded=0;entryX=0.05;entryY=0.688;entryDx=0;entryDy=0;entryPerimeter=0;dashed=1;" edge="1" parent="1" target="kj0e2nadQdQcvHDCw8Em-33">
          <mxGeometry width="50" height="50" relative="1" as="geometry">
            <mxPoint x="2667" y="657.5" as="sourcePoint" />
            <mxPoint x="2717" y="607.5" as="targetPoint" />
          </mxGeometry>
        </mxCell>
        <mxCell id="kj0e2nadQdQcvHDCw8Em-60" value="&amp;lt;&amp;lt;include&amp;gt;&amp;gt;" style="text;html=1;align=center;verticalAlign=middle;whiteSpace=wrap;rounded=0;" vertex="1" parent="1">
          <mxGeometry x="2774" y="426.5" width="60" height="30" as="geometry" />
        </mxCell>
        <mxCell id="kj0e2nadQdQcvHDCw8Em-61" value="&amp;lt;&amp;lt;include&amp;gt;&amp;gt;" style="text;html=1;align=center;verticalAlign=middle;whiteSpace=wrap;rounded=0;" vertex="1" parent="1">
          <mxGeometry x="2694" y="501.5" width="60" height="30" as="geometry" />
        </mxCell>
        <mxCell id="kj0e2nadQdQcvHDCw8Em-62" value="&amp;lt;&amp;lt;include&amp;gt;&amp;gt;" style="text;html=1;align=center;verticalAlign=middle;whiteSpace=wrap;rounded=0;" vertex="1" parent="1">
          <mxGeometry x="2686" y="634.5" width="60" height="30" as="geometry" />
        </mxCell>
        <mxCell id="kj0e2nadQdQcvHDCw8Em-63" value="&amp;lt;&amp;lt;include&amp;gt;&amp;gt;" style="text;html=1;align=center;verticalAlign=middle;whiteSpace=wrap;rounded=0;" vertex="1" parent="1">
          <mxGeometry x="2584" y="726.5" width="60" height="30" as="geometry" />
        </mxCell>
        <mxCell id="kj0e2nadQdQcvHDCw8Em-64" style="edgeStyle=orthogonalEdgeStyle;rounded=0;orthogonalLoop=1;jettySize=auto;html=1;exitX=1;exitY=0.5;exitDx=0;exitDy=0;entryX=0;entryY=0.5;entryDx=0;entryDy=0;dashed=1;" edge="1" parent="1" source="kj0e2nadQdQcvHDCw8Em-65" target="kj0e2nadQdQcvHDCw8Em-31">
          <mxGeometry relative="1" as="geometry">
            <mxPoint x="2563" y="782.5" as="targetPoint" />
          </mxGeometry>
        </mxCell>
        <mxCell id="kj0e2nadQdQcvHDCw8Em-65" value="Приобрести или найти на складе дополнительные ресурсы" style="ellipse;whiteSpace=wrap;html=1;" vertex="1" parent="1">
          <mxGeometry x="2356" y="776.5" width="120" height="80" as="geometry" />
        </mxCell>
        <mxCell id="kj0e2nadQdQcvHDCw8Em-66" value="&amp;lt;&amp;lt;include&amp;gt;&amp;gt;" style="text;html=1;align=center;verticalAlign=middle;whiteSpace=wrap;rounded=0;" vertex="1" parent="1">
          <mxGeometry x="2485" y="780.5" width="60" height="30" as="geometry" />
        </mxCell>
        <mxCell id="kj0e2nadQdQcvHDCw8Em-67" style="edgeStyle=orthogonalEdgeStyle;rounded=0;orthogonalLoop=1;jettySize=auto;html=1;exitX=1;exitY=0.5;exitDx=0;exitDy=0;entryX=0;entryY=0.5;entryDx=0;entryDy=0;dashed=1;" edge="1" parent="1" target="kj0e2nadQdQcvHDCw8Em-68">
          <mxGeometry relative="1" as="geometry">
            <mxPoint x="2867.0000000000005" y="315.5" as="sourcePoint" />
          </mxGeometry>
        </mxCell>
        <mxCell id="kj0e2nadQdQcvHDCw8Em-68" value="Предоставить документы о выполненных работах" style="ellipse;whiteSpace=wrap;html=1;" vertex="1" parent="1">
          <mxGeometry x="2976" y="275.5" width="120" height="80" as="geometry" />
        </mxCell>
        <mxCell id="kj0e2nadQdQcvHDCw8Em-69" value="&amp;lt;&amp;lt;include&amp;gt;&amp;gt;" style="text;html=1;align=center;verticalAlign=middle;whiteSpace=wrap;rounded=0;" vertex="1" parent="1">
          <mxGeometry x="2898" y="275.5" width="60" height="30" as="geometry" />
        </mxCell>
        <mxCell id="kj0e2nadQdQcvHDCw8Em-70" style="edgeStyle=orthogonalEdgeStyle;rounded=0;orthogonalLoop=1;jettySize=auto;html=1;entryX=0;entryY=0.5;entryDx=0;entryDy=0;dashed=1;" edge="1" parent="1" source="kj0e2nadQdQcvHDCw8Em-71" target="kj0e2nadQdQcvHDCw8Em-13">
          <mxGeometry relative="1" as="geometry" />
        </mxCell>
        <mxCell id="kj0e2nadQdQcvHDCw8Em-71" value="Прогнозировать прибыль и затраты" style="ellipse;whiteSpace=wrap;html=1;" vertex="1" parent="1">
          <mxGeometry x="1546" y="384" width="120" height="80" as="geometry" />
        </mxCell>
        <mxCell id="kj0e2nadQdQcvHDCw8Em-72" value="&amp;lt;&amp;lt;include&amp;gt;&amp;gt;" style="text;html=1;align=center;verticalAlign=middle;whiteSpace=wrap;rounded=0;" vertex="1" parent="1">
          <mxGeometry x="1097" y="384.5" width="60" height="30" as="geometry" />
        </mxCell>
        <mxCell id="kj0e2nadQdQcvHDCw8Em-73" style="edgeStyle=orthogonalEdgeStyle;rounded=0;orthogonalLoop=1;jettySize=auto;html=1;exitX=1;exitY=0.5;exitDx=0;exitDy=0;entryX=0;entryY=0.5;entryDx=0;entryDy=0;dashed=1;" edge="1" parent="1" source="kj0e2nadQdQcvHDCw8Em-74" target="kj0e2nadQdQcvHDCw8Em-75">
          <mxGeometry relative="1" as="geometry" />
        </mxCell>
        <mxCell id="kj0e2nadQdQcvHDCw8Em-74" value="Произвести анализ полученных предложений" style="ellipse;whiteSpace=wrap;html=1;" vertex="1" parent="1">
          <mxGeometry x="1165" y="384.5" width="120" height="80" as="geometry" />
        </mxCell>
        <mxCell id="kj0e2nadQdQcvHDCw8Em-75" value="Выбрать лучшие предложения для дальнейшего анализа" style="ellipse;whiteSpace=wrap;html=1;" vertex="1" parent="1">
          <mxGeometry x="1350" y="384" width="120" height="80" as="geometry" />
        </mxCell>
        <mxCell id="kj0e2nadQdQcvHDCw8Em-76" style="edgeStyle=orthogonalEdgeStyle;rounded=0;orthogonalLoop=1;jettySize=auto;html=1;entryX=0;entryY=0.5;entryDx=0;entryDy=0;dashed=1;" edge="1" parent="1" source="kj0e2nadQdQcvHDCw8Em-77" target="kj0e2nadQdQcvHDCw8Em-74">
          <mxGeometry relative="1" as="geometry" />
        </mxCell>
        <mxCell id="kj0e2nadQdQcvHDCw8Em-77" value="Получить список подготовленных предложений" style="ellipse;whiteSpace=wrap;html=1;" vertex="1" parent="1">
          <mxGeometry x="966" y="384.5" width="120" height="80" as="geometry" />
        </mxCell>
        <mxCell id="kj0e2nadQdQcvHDCw8Em-78" value="&amp;lt;&amp;lt;include&amp;gt;&amp;gt;" style="text;html=1;align=center;verticalAlign=middle;whiteSpace=wrap;rounded=0;" vertex="1" parent="1">
          <mxGeometry x="1288" y="384.5" width="60" height="30" as="geometry" />
        </mxCell>
        <mxCell id="kj0e2nadQdQcvHDCw8Em-79" value="&amp;lt;&amp;lt;include&amp;gt;&amp;gt;" style="text;html=1;align=center;verticalAlign=middle;whiteSpace=wrap;rounded=0;" vertex="1" parent="1">
          <mxGeometry x="1478" y="388" width="60" height="30" as="geometry" />
        </mxCell>
        <mxCell id="kj0e2nadQdQcvHDCw8Em-80" style="edgeStyle=orthogonalEdgeStyle;rounded=0;orthogonalLoop=1;jettySize=auto;html=1;entryX=0;entryY=0.5;entryDx=0;entryDy=0;dashed=1;" edge="1" parent="1" source="kj0e2nadQdQcvHDCw8Em-81" target="kj0e2nadQdQcvHDCw8Em-17">
          <mxGeometry relative="1" as="geometry" />
        </mxCell>
        <mxCell id="kj0e2nadQdQcvHDCw8Em-81" value="Найти клиентов&amp;nbsp;" style="ellipse;whiteSpace=wrap;html=1;" vertex="1" parent="1">
          <mxGeometry x="2018" y="201.5" width="120" height="80" as="geometry" />
        </mxCell>
        <mxCell id="kj0e2nadQdQcvHDCw8Em-82" value="&amp;lt;&amp;lt;include&amp;gt;&amp;gt;" style="text;html=1;align=center;verticalAlign=middle;whiteSpace=wrap;rounded=0;" vertex="1" parent="1">
          <mxGeometry x="2138" y="195" width="60" height="30" as="geometry" />
        </mxCell>
      </root>
    </mxGraphModel>
  </diagram>
</mxfile>
